<?xml version="1.0" encoding="iso-8859-1"?>
<!-- Generator: Adobe Illustrator 19.0.0, SVG Export Plug-In . SVG Version: 6.00 Build 0)  -->
<svg version="1.1" id="Layer_1" xmlns="http://www.w3.org/2000/svg" xmlns:xlink="http://www.w3.org/1999/xlink" x="0px" y="0px"
	 viewBox="0 0 511.968 511.968" style="enable-background:new 0 0 511.968 511.968;" xml:space="preserve">
<rect x="91.928" y="192" width="127.968" height="127.968"/>
<rect x="91.928" y="384" style="fill:#25B6D2;" width="127.968" height="127.968"/>
<rect id="SVGCleanerId_0" x="255.504" y="222.744" style="fill:#8BA0AE;" width="164.536" height="8"/>
<rect id="SVGCleanerId_1" x="255.504" y="271.864" style="fill:#8BA0AE;" width="104.64" height="8"/>
<g>
	<rect id="SVGCleanerId_0_1_" x="255.504" y="222.744" style="fill:#8BA0AE;" width="164.536" height="8"/>
</g>
<g>
	<rect id="SVGCleanerId_1_1_" x="255.504" y="271.864" style="fill:#8BA0AE;" width="104.64" height="8"/>
</g>
<g>
	<rect x="255.504" y="414.768" style="fill:#8BA0AE;" width="164.536" height="8"/>
	<rect x="255.504" y="463.88" style="fill:#8BA0AE;" width="104.64" height="8"/>
	<rect x="255.504" y="30.728" style="fill:#8BA0AE;" width="164.536" height="8"/>
	<rect x="255.504" y="79.848" style="fill:#8BA0AE;" width="104.64" height="8"/>
</g>
<rect x="91.928" style="fill:#32BEA6;" width="127.968" height="127.968"/>
<g>
	<path style="fill:#FFFFFF;" d="M151.168,302.8v-11.232c-6.448-0.112-13.128-2.112-17.016-4.888l2.672-7.456
		c4,2.672,9.784,4.792,16.016,4.792c7.888,0,13.224-4.56,13.224-10.896c0-6.12-4.336-9.896-12.56-13.232
		c-11.344-4.456-18.352-9.56-18.352-19.24c0-9.224,6.56-16.232,16.8-17.904V211.52h6.888v10.784
		c6.672,0.224,11.232,2.008,14.464,3.896l-2.784,7.336c-2.336-1.336-6.896-3.784-14.016-3.784c-8.56,0-11.784,5.12-11.784,9.56
		c0,5.792,4.112,8.68,13.792,12.68c11.456,4.672,17.232,10.456,17.232,20.352c0,8.784-6.12,17.016-17.568,18.904v11.56h-7.008V302.8
		z"/>
	<path style="fill:#FFFFFF;" d="M151.168,493.48v-11.232c-6.448-0.112-13.128-2.112-17.016-4.888l2.672-7.456
		c4,2.672,9.784,4.792,16.016,4.792c7.888,0,13.224-4.56,13.224-10.896c0-6.12-4.336-9.896-12.56-13.232
		c-11.344-4.456-18.352-9.56-18.352-19.24c0-9.224,6.56-16.232,16.8-17.904V402.2h6.888v10.784
		c6.672,0.224,11.232,2.008,14.464,3.896l-2.784,7.336c-2.336-1.336-6.896-3.784-14.016-3.784c-8.56,0-11.784,5.12-11.784,9.56
		c0,5.792,4.112,8.68,13.792,12.68c11.456,4.672,17.232,10.456,17.232,20.352c0,8.784-6.12,17.016-17.568,18.904v11.56h-7.008
		V493.48z"/>
	<path style="fill:#FFFFFF;" d="M151.168,108.56V97.328c-6.448-0.112-13.128-2.112-17.016-4.888l2.672-7.456
		c4,2.672,9.784,4.792,16.016,4.792c7.888,0,13.224-4.56,13.224-10.896c0-6.12-4.336-9.896-12.56-13.232
		c-11.344-4.456-18.352-9.56-18.352-19.24c0-9.224,6.56-16.232,16.8-17.904V17.256h6.888V28.04
		c6.672,0.224,11.232,2.008,14.464,3.896l-2.784,7.336c-2.336-1.336-6.896-3.784-14.016-3.784c-8.56,0-11.784,5.12-11.784,9.56
		c0,5.792,4.112,8.68,13.792,12.68c11.456,4.672,17.232,10.456,17.232,20.352c0,8.784-6.12,17.016-17.568,18.904v11.56h-7.008
		V108.56z"/>
</g>
</svg>
