<?xml version="1.0"?>
<svg xmlns="http://www.w3.org/2000/svg" id="Layer_1" data-name="Layer 1" viewBox="0 0 512 512" width="512" height="512"><title> Sales Analytics Dollars</title><path d="M377.4,300.776c.954.127,1.91.237,2.86.381.059-.251.11-.5.168-.757Q378.91,300.573,377.4,300.776Z" style="fill:#d4e1f4"/><path d="M82.5,262.225c0-45.245,17.965-88.261,50.222-121.087A169.318,169.318,0,0,1,208,97.216V91.2A169.524,169.524,0,0,0,92.722,141.138C60.465,173.964,42.5,216.98,42.5,262.225c0,94.367,76.773,171.139,171.14,171.139a174.564,174.564,0,0,0,20.069-1.167C148.7,422.292,82.5,349.85,82.5,262.225Z" style="fill:#d4e1f4"/><path d="M214.14,444.89a181.215,181.215,0,0,0,85.212-20.849l-5.584-10.622A169.33,169.33,0,0,1,214.14,432.89C119.772,432.89,43,356.117,43,261.75c0-45.245,17.715-88.261,49.972-121.087A170.9,170.9,0,0,1,208,90.722V261.75a6.339,6.339,0,0,0,6.14,6.25H385.165a172.541,172.541,0,0,1-6.926,42.425l11.5,3.357a181.632,181.632,0,0,0,7.529-51.876,5.921,5.921,0,0,0-6-5.906H220V84.62a5.942,5.942,0,0,0-5.93-6A181.952,181.952,0,0,0,84.486,132.214c-34.514,35.122-53.5,81.126-53.5,129.536C30.983,362.734,113.156,444.89,214.14,444.89Z" style="fill:#0635c9"/><path d="M409.4,67.524C374.28,33.009,328.344,14,279.932,14A5.943,5.943,0,0,0,274,20V197.135A5.772,5.772,0,0,0,279.864,203H457a5.943,5.943,0,0,0,6-5.932c0-48.413-19.009-94.383-53.524-129.5C409.451,67.539,409.427,67.549,409.4,67.524Zm20.976,48.195L355.029,191H293.792L404.812,80.013A176.494,176.494,0,0,1,430.378,115.719ZM286,120.857l74.555-74.623a176.411,176.411,0,0,1,35.851,25.42L286,182.094Zm63.225-80.194L286,103.888V26.1A170.266,170.266,0,0,1,349.225,40.663ZM372,191l63.994-63.993A171.546,171.546,0,0,1,450.9,191Z" style="fill:#0635c9"/><path d="M385,306c-.379,0-.758,0-1.127.011A95.631,95.631,0,1,0,385,306Zm2.9,179.95a84,84,0,0,1-6.738-167.858l.113-.006c.22-.014.447-.023.675-.031l.156,0a84,84,0,0,1,5.794,167.9Z" style="fill:#1ae5be"/><path d="M385,357.431a19.022,19.022,0,0,1,19,19,6,6,0,1,0,12,0,31.05,31.05,0,0,0-25-30.412V337.7a6,6,0,1,0-12,0v8.324a31,31,0,0,0,6,61.412,19,19,0,0,1,.179,37.991c-.06,0-.118-.009-.179-.009s-.119.007-.179.009A19.017,19.017,0,0,1,366,426.431a6,6,0,0,0-12,0,31.049,31.049,0,0,0,25,30.412v9.462a6,6,0,1,0,12,0v-9.462a31,31,0,0,0-6-61.412,19,19,0,0,1,0-38Z" style="fill:#1ae5be"/></svg>
